<svg xmlns="http://www.w3.org/2000/svg" viewBox="0 0 141.15 157.49"><defs><style>.cls-1{fill:#fff;}.cls-2,.cls-3,.cls-4,.cls-6,.cls-7{fill:none;stroke-miterlimit:10;stroke-width:2px;}.cls-2{stroke:#eb5e26;}.cls-3{stroke:#48ac33;}.cls-4{stroke:#312783;}.cls-5{font-size:16.16px;}.cls-5,.cls-8{fill:#1d1d1b;font-family:MyriadPro-Regular, Myriad Pro;}.cls-6,.cls-7{stroke:#f9b233;}.cls-7{stroke-dasharray:0.97 0.97;}.cls-8{font-size:12px;}.cls-9{letter-spacing:-0.01em;}</style></defs><g id="Ebene_2" data-name="Ebene 2"><g id="Ebene_1-2" data-name="Ebene 1"><polygon class="cls-1" points="108.81 92.03 91.79 60.02 32.15 91.72 108.81 92.03"/><line id="c" class="cls-2" x1="108.81" y1="92.03" x2="32.15" y2="91.72"/><line id="a" class="cls-3" x1="91.79" y1="60.01" x2="108.81" y2="92.03"/><line id="b" class="cls-4" x1="91.79" y1="60.01" x2="32.15" y2="91.72"/><rect class="cls-3" x="97.02" y="47.66" width="36.15" height="36.15" transform="translate(-17.45 66.35) rotate(-30)"/><rect class="cls-4" x="13.04" y="13.04" width="66.32" height="66.32" transform="translate(65.3 -16.28) rotate(62)"/><text class="cls-5" transform="translate(39.35 50.89)">b²</text><text class="cls-5" transform="translate(110.03 68.66)">a²</text><g id="h"><line class="cls-6" x1="91.42" y1="58.52" x2="91.42" y2="59.02"/><line class="cls-7" x1="91.42" y1="59.99" x2="91.42" y2="92.54"/><line class="cls-6" x1="91.42" y1="93.03" x2="91.42" y2="93.53"/></g><rect class="cls-4" x="32.15" y="91.88" width="59.27" height="64.46"/><rect class="cls-3" x="91.42" y="92.03" width="17.39" height="64.46"/><text class="cls-8" transform="translate(58.17 126.63)"><tspan class="cls-9">c</tspan><tspan x="5.3" y="0">q</tspan></text><text class="cls-8" transform="translate(93.86 126.63)">cp</text></g></g></svg>